<svg xmlns="http://www.w3.org/2000/svg" viewBox="0 0 64 64">
  <defs>
    <linearGradient id="bg" x1="8" y1="8" x2="56" y2="56" gradientUnits="userSpaceOnUse">
      <stop stop-color="#24103f"/>
      <stop offset="1" stop-color="#0d0a1c"/>
    </linearGradient>
    <linearGradient id="fusion" x1="14" y1="17" x2="50" y2="48" gradientUnits="userSpaceOnUse">
      <stop stop-color="#c084fc"/>
      <stop offset=".5" stop-color="#f0abfc"/>
      <stop offset="1" stop-color="#8b5cf6"/>
    </linearGradient>
    <filter id="glow" x="-40%" y="-40%" width="180%" height="180%">
      <feGaussianBlur stdDeviation="1.6" result="blur"/>
      <feMerge><feMergeNode in="blur"/><feMergeNode in="SourceGraphic"/></feMerge>
    </filter>
  </defs>
  <rect width="64" height="64" rx="16" fill="url(#bg)"/>
  <g fill="none" stroke="url(#fusion)" stroke-linecap="round" stroke-width="4" filter="url(#glow)">
    <path d="M17 21c10-8 19 2 15 11s-13 17-2 20"/>
    <path d="M47 21c-10-8-19 2-15 11s13 17 2 20"/>
  </g>
  <path d="m32 15 3.8 12.2L48 32l-12.2 4.8L32 49l-3.8-12.2L16 32l12.2-4.8L32 15Z" fill="url(#fusion)" filter="url(#glow)"/>
  <circle cx="32" cy="32" r="3.5" fill="#fff7ff"/>
</svg>
